Coordinates
version=1
nRows=17
nColumns=40
inDegrees=yes

Units are S.I. units (second, meters, Newtons, ...)
Angles are in degrees.

endheader
time	pelvis_tilt	pelvis_list	pelvis_rotation	pelvis_tx	pelvis_ty	pelvis_tz	hip_flexion_r	hip_adduction_r	hip_rotation_r	knee_angle_r	knee_angle_r_beta	ankle_angle_r	subtalar_angle_r	mtp_angle_r	hip_flexion_l	hip_adduction_l	hip_rotation_l	knee_angle_l	knee_angle_l_beta	ankle_angle_l	subtalar_angle_l	mtp_angle_l	lumbar_extension	lumbar_bending	lumbar_rotation	arm_flex_r	arm_add_r	arm_rot_r	elbow_flex_r	pro_sup_r	wrist_flex_r	wrist_dev_r	arm_flex_l	arm_add_l	arm_rot_l	elbow_flex_l	pro_sup_l	wrist_flex_l	wrist_dev_l
      5.53800000	     -4.85371296	     -4.35894847	     -2.38770400	      0.90142931	      0.93508907	      0.45788590	     36.68138253	     -2.21766000	     -4.49248918	     63.68836591	     63.68836591	     -2.37095632	    -18.12563159	      3.34932934	      9.43500738	     -3.36229609	     -6.39453077	     17.15592520	     17.15592520	     14.85530921	    -11.99910124	      3.54258700	     -9.85645841	      7.69779089	      2.61840957	     -5.68507420	    -11.66295781	    -15.21372428	     23.86451520	     47.07082288	      0.00000000	      0.00000000	      9.30058581	    -15.64198461	     -6.93934148	     89.44927093	     47.36580747	      0.00000000	      0.00000000
      5.55100000	     -4.98485463	     -4.54360428	     -2.52700102	      0.90005695	      0.93494045	      0.45834904	     37.32095503	     -1.76432102	     -4.98195045	     60.70518811	     60.70518811	     -1.35641737	    -17.88942441	      3.96426892	      8.90722568	     -3.59703410	     -6.63151810	     16.80388066	     16.80388066	     15.01290581	    -11.69599758	      3.07794033	     -9.95652492	      7.85240076	      2.12087482	     -6.55067558	    -11.32299528	    -15.22361556	     24.76502271	     47.00666549	      0.00000000	      0.00000000	      9.53567189	    -15.71280897	     -7.97906438	     91.53170793	     47.51999623	      0.00000000	      0.00000000
      5.56400000	     -5.19325638	     -4.72430062	     -2.61130942	      0.89865146	      0.93452542	      0.45882577	     37.80231515	     -1.34180042	     -5.48182483	     57.24178402	     57.24178402	     -0.56841256	    -17.43039024	      4.08221450	      8.51118900	     -3.79967518	     -6.63733409	     16.52384601	     16.52384601	     15.25950640	    -11.59619513	      2.96749487	     -9.89880328	      8.00754278	      1.85961029	     -7.16261866	    -11.03094768	    -15.18199743	     24.65170225	     46.99910732	      0.00000000	      0.00000000	     10.37932948	    -15.82070555	     -8.21087103	     92.20354041	     47.55550731	      0.00000000	      0.00000000
      5.57700000	     -5.14848051	     -4.91015557	     -2.79095720	      0.89750427	      0.93425229	      0.45950338	     37.73070935	     -0.82825471	     -5.83978913	     53.26292340	     53.26292340	     -0.19182219	    -16.88801950	      3.43910767	      7.79751509	     -4.04768082	     -6.98467721	     16.24718217	     16.24718217	     15.59240618	    -11.23964709	      2.52856995	    -10.17732379	      8.13871311	      2.02443248	     -7.92295782	    -10.78819512	    -15.12754356	     24.96578142	     46.96329672	      0.00000000	      0.00000000	     11.10464996	    -15.41649114	     -8.73676510	     93.83624019	     47.64958062	      0.00000000	      0.00000000
      5.59000000	     -5.35220496	     -5.08652672	     -2.84449734	      0.89626570	      0.93351928	      0.46011374	     37.67987299	     -0.44828922	     -6.38695495	     48.92282922	     48.92282922	      0.36478890	    -15.75599988	      3.27939482	      7.48235970	     -4.27203745	     -7.01355860	     16.14700183	     16.14700183	     15.86309017	    -11.16850318	      2.29380258	    -10.13218433	      8.30553929	      1.70612381	     -8.32242346	    -10.59360784	    -15.09824523	     25.04421800	     46.94941685	      0.00000000	      0.00000000	     11.70294525	    -15.46877027	     -8.89629630	     94.34315657	     47.67973452	      0.00000000	      0.00000000
      5.60300000	     -5.52943135	     -5.20214758	     -2.93820817	      0.89526990	      0.93262132	      0.46088731	     37.35673157	     -0.08400292	     -6.85515133	     44.26762751	     44.26762751	      0.84083098	    -14.22277870	      3.15171436	      7.10213318	     -4.43556285	     -7.12479743	     16.02685893	     16.02685893	     16.19293823	    -11.06739081	      2.02790288	    -10.07081297	      8.38291195	      1.59717038	     -8.61760850	    -10.33055142	    -15.05837966	     25.11322208	     46.93650832	      0.00000000	      0.00000000	     12.37238517	    -15.44050344	     -9.05651923	     94.92205475	     47.70929183	      0.00000000	      0.00000000
      5.61600000	     -5.54993221	     -5.27472226	     -3.02833287	      0.89463581	      0.93174246	      0.46171318	     36.38387605	      0.21497227	     -7.46203611	     38.89944956	     38.89944956	     -0.29783891	    -12.77399197	     -1.47429300	      6.51776830	     -4.59092932	     -7.49324826	     15.88958101	     15.88958101	     16.42064040	    -10.62992902	      1.16652003	    -10.20431799	      8.40613744	      1.57688637	     -9.09127239	    -10.15009707	    -14.82145826	     25.88895733	     46.84781313	      0.00000000	      0.00000000	     12.92892864	    -15.15141094	     -9.45126900	     95.61602872	     47.85364723	      0.00000000	      0.00000000
      5.62900000	     -5.60332973	     -5.31219933	     -3.08527687	      0.89420422	      0.93073256	      0.46262629	     35.40365084	      0.50981496	     -8.04605053	     33.81901717	     33.81901717	      0.14408054	    -10.22659882	     -1.04725407	      5.97038575	     -4.66409592	     -7.57621802	     15.77025423	     15.77025423	     16.77494371	    -10.55454015	      0.95551024	    -10.22977896	      8.39374735	      1.56152043	     -9.14967206	     -9.95689852	    -14.73880306	     25.83876888	     46.83865144	      0.00000000	      0.00000000	     13.49628117	    -15.02457340	     -9.40372011	     95.87041184	     47.86750271	      0.00000000	      0.00000000
      5.64200000	     -5.68196622	     -5.29433028	     -3.12548066	      0.89406527	      0.92950373	      0.46362073	     34.27657167	      0.78260380	     -8.69169114	     28.79582941	     28.79582941	      0.39795030	     -7.64147226	     -0.35901157	      5.42458862	     -4.67507285	     -7.65057715	     15.63566441	     15.63566441	     17.15781045	    -10.47687119	      0.72091106	    -10.14127507	      8.30488910	      1.54420121	     -9.09528454	     -9.77770926	    -14.67846433	     25.81381897	     46.83252173	      0.00000000	      0.00000000	     13.94291182	    -14.90322870	     -9.34408235	     95.96928783	     47.87707951	      0.00000000	      0.00000000
      5.65500000	     -5.62114998	     -5.17088225	     -3.15315775	      0.89434678	      0.92826697	      0.46459689	     32.95418843	      0.82740997	     -9.79325684	     24.22780557	     24.22780557	      0.90938907	     -4.04734703	      0.85667771	      4.64277752	     -4.57562601	     -7.89183308	     15.38769182	     15.38769182	     17.58643455	    -10.09831490	      0.40584936	    -10.18986607	      8.11956224	      1.63915750	     -8.96722462	     -9.61126611	    -14.56125301	     25.70082903	     46.82332358	      0.00000000	      0.00000000	     14.52646300	    -14.64427268	     -9.21366630	     95.63489311	     47.88945225	      0.00000000	      0.00000000
      5.66800000	     -5.63198042	     -5.13575432	     -3.12430939	      0.89485089	      0.92684068	      0.46580276	     31.62361178	      1.14028536	    -10.53886613	     19.97953456	     19.97953456	      1.01451267	     -1.73497479	      2.19510663	      3.99624169	     -4.57506730	     -7.90028324	     15.26794916	     15.26794916	     17.99579104	    -10.05276630	      0.19777032	    -10.09204915	      8.02466435	      1.61813255	     -8.71440417	     -9.49908606	    -14.50723092	     25.73208338	     46.81732663	      0.00000000	      0.00000000	     14.76044337	    -14.49668254	     -9.04942028	     95.39190277	     47.88719661	      0.00000000	      0.00000000
      5.68100000	     -5.59881999	     -5.00747290	     -3.11534002	      0.89557148	      0.92542708	      0.46701552	     30.61921408	      1.16339581	    -11.88273114	     17.16268693	     17.16268693	      2.65994733	      1.47011978	      7.34999715	      3.25285850	     -4.48868628	     -8.07637947	     15.09268280	     15.09268280	     18.51673594	     -9.67126894	      0.12828235	     -9.97800438	      7.82619857	      1.96200656	     -8.49454812	     -9.41489287	    -14.35758952	     25.66116683	     46.79135608	      0.00000000	      0.00000000	     15.43698293	    -14.17252933	     -8.45372016	     94.15166813	     47.91979054	      0.00000000	      0.00000000
      5.69400000	     -5.60918065	     -4.95699275	     -3.06512303	      0.89654602	      0.92389544	      0.46843808	     29.52714067	      1.42340127	    -12.79749550	     14.54527805	     14.54527805	      2.53879144	      2.94944848	      8.09477944	      2.57312890	     -4.49076739	     -8.07563585	     14.96768060	     14.96768060	     18.95018337	     -9.56680702	     -0.00121110	     -9.77865358	      7.70542807	      1.87645071	     -8.04567470	     -9.38156099	    -14.33632483	     25.82147272	     46.78454849	      0.00000000	      0.00000000	     15.38420721	    -14.01729061	     -8.35989885	     93.67441102	     47.91399687	      0.00000000	      0.00000000
      5.70700000	     -5.60468085	     -4.92948588	     -3.00553714	      0.89771634	      0.92240622	      0.46990616	     28.57888537	      1.63174981	    -13.88386543	     12.81555351	     12.81555351	      2.49893715	      4.23616296	      8.61272169	      1.85764198	     -4.53329694	     -8.13514562	     14.83871198	     14.83871198	     19.44158416	     -9.33830024	     -0.06093153	     -9.60039796	      7.66129136	      1.84042184	     -7.47879787	     -9.39803464	    -14.29476643	     25.95858902	     46.77822096	      0.00000000	      0.00000000	     15.34878896	    -13.79738050	     -8.26842267	     92.75610101	     47.90078151	      0.00000000	      0.00000000
      5.72000000	     -5.64363053	     -4.95020627	     -2.94414947	      0.89899271	      0.92096222	      0.47155797	     27.83814666	      1.86345491	    -14.80310129	     11.88999805	     11.88999805	      2.38370922	      4.87375884	      8.72868077	      1.23485606	     -4.65725495	     -8.16990728	     14.81602067	     14.81602067	     19.92827188	     -9.12258615	     -0.06775347	     -9.32171757	      7.65021275	      1.80426952	     -6.80964165	     -9.45459227	    -14.25966802	     26.14553410	     46.77178799	      0.00000000	      0.00000000	     15.17373430	    -13.54295501	     -8.15633150	     91.66357647	     47.87944215	      0.00000000	      0.00000000
      5.73300000	     -5.65565153	     -5.03653437	     -2.89036089	      0.90040043	      0.91971220	      0.47340722	     27.16248007	      2.12184853	    -15.70247825	     11.54975442	     11.54975442	      2.10301105	      5.22314619	      8.19232393	      0.63874888	     -4.90343765	     -8.30326832	     14.94026330	     14.94026330	     20.49608469	     -8.70928489	      0.10198988	     -9.06534047	      7.72228754	      1.81420958	     -6.07586694	     -9.57373486	    -14.21667751	     26.31215696	     46.76536275	      0.00000000	      0.00000000	     15.11773783	    -13.30075866	     -8.15416647	     89.83150509	     47.85544905	      0.00000000	      0.00000000
      5.74600000	     -5.66985778	     -5.08061650	     -2.83348441	      0.90195628	      0.91844893	      0.47539926	     26.54297295	      2.35933346	    -16.11822660	     11.53216521	     11.53216521	      0.91685651	      4.69374726	      4.71594052	      0.21307183	     -5.18529442	     -8.68136404	     15.45644248	     15.45644248	     21.60415681	     -7.87165686	      1.18933176	     -8.76482627	      7.74345690	      2.46661351	     -5.68019063	     -9.72695341	    -14.25222183	     26.45533672	     46.75350443	      0.00000000	      0.00000000	     15.63417145	    -12.46982247	     -7.78944979	     87.09247632	     47.82500126	      0.00000000	      0.00000000
